<!-- <svg width="354" height="218" viewBox="0 0 354 218" fill="none" xmlns="http://www.w3.org/2000/svg">
<path d="M129.192 75.856C132.333 75.856 134.896 75.4013 136.88 74.492C138.947 73.5 140.517 72.2187 141.592 70.648C142.749 68.9947 143.535 67.1347 143.948 65.068C144.361 62.9187 144.568 60.728 144.568 58.496V56.264H160.936V58.496C160.936 68.8293 158.208 76.8067 152.752 82.428C147.379 87.9667 139.525 90.736 129.192 90.736C119.272 90.736 111.419 87.7187 105.632 81.684C99.8453 75.6493 96.952 66.8453 96.952 55.272V35.928C96.952 30.3893 97.696 25.4293 99.184 21.048C100.672 16.584 102.821 12.864 105.632 9.888C108.443 6.82933 111.832 4.51467 115.8 2.944C119.768 1.29066 124.232 0.463994 129.192 0.463994C134.317 0.463994 138.864 1.20799 142.832 2.696C146.8 4.184 150.107 6.33333 152.752 9.14399C155.48 11.9547 157.505 15.344 158.828 19.312C160.233 23.28 160.936 27.744 160.936 32.704V34.936H144.568V32.704C144.568 30.6373 144.32 28.5707 143.824 26.504C143.328 24.4373 142.501 22.5773 141.344 20.924C140.187 19.2707 138.616 17.948 136.632 16.956C134.648 15.8813 132.168 15.344 129.192 15.344C126.464 15.344 124.108 15.8813 122.124 16.956C120.14 17.948 118.487 19.3533 117.164 21.172C115.841 22.908 114.849 24.9747 114.188 27.372C113.609 29.6867 113.32 32.1253 113.32 34.688V56.512C113.32 59.3227 113.609 61.9267 114.188 64.324C114.767 66.6387 115.676 68.664 116.916 70.4C118.156 72.136 119.768 73.5 121.752 74.492C123.819 75.4013 126.299 75.856 129.192 75.856ZM190.362 2.19999H252.858V17.824H229.794V89H213.426V17.824H190.362V2.19999ZM287.244 2.19999H342.796V17.824H303.612V37.664H342.052V53.288H303.612V89H287.244V2.19999Z" fill="#FF0035"/>
<path d="M38.192 174.856C41.3333 174.856 43.896 174.401 45.88 173.492C47.9467 172.5 49.5173 171.219 50.592 169.648C51.7493 167.995 52.5347 166.135 52.948 164.068C53.3613 161.919 53.568 159.728 53.568 157.496V155.264H69.936V157.496C69.936 167.829 67.208 175.807 61.752 181.428C56.3787 186.967 48.5253 189.736 38.192 189.736C28.272 189.736 20.4187 186.719 14.632 180.684C8.84533 174.649 5.952 165.845 5.952 154.272V134.928C5.952 129.389 6.696 124.429 8.184 120.048C9.672 115.584 11.8213 111.864 14.632 108.888C17.4427 105.829 20.832 103.515 24.8 101.944C28.768 100.291 33.232 99.464 38.192 99.464C43.3173 99.464 47.864 100.208 51.832 101.696C55.8 103.184 59.1067 105.333 61.752 108.144C64.48 110.955 66.5053 114.344 67.828 118.312C69.2333 122.28 69.936 126.744 69.936 131.704V133.936H53.568V131.704C53.568 129.637 53.32 127.571 52.824 125.504C52.328 123.437 51.5013 121.577 50.344 119.924C49.1867 118.271 47.616 116.948 45.632 115.956C43.648 114.881 41.168 114.344 38.192 114.344C35.464 114.344 33.108 114.881 31.124 115.956C29.14 116.948 27.4867 118.353 26.164 120.172C24.8413 121.908 23.8493 123.975 23.188 126.372C22.6093 128.687 22.32 131.125 22.32 133.688V155.512C22.32 158.323 22.6093 160.927 23.188 163.324C23.7667 165.639 24.676 167.664 25.916 169.4C27.156 171.136 28.768 172.5 30.752 173.492C32.8187 174.401 35.2987 174.856 38.192 174.856ZM98.6178 134.928C98.6178 123.685 101.428 114.964 107.05 108.764C112.754 102.564 120.607 99.464 130.61 99.464C140.612 99.464 148.424 102.564 154.046 108.764C159.75 114.964 162.602 123.685 162.602 134.928V154.272C162.602 165.845 159.75 174.649 154.046 180.684C148.424 186.719 140.612 189.736 130.61 189.736C120.607 189.736 112.754 186.719 107.05 180.684C101.428 174.649 98.6178 165.845 98.6178 154.272V134.928ZM130.61 174.856C133.586 174.856 136.066 174.401 138.05 173.492C140.034 172.5 141.646 171.136 142.886 169.4C144.126 167.664 144.994 165.597 145.49 163.2C145.986 160.803 146.234 158.157 146.234 155.264V133.936C146.234 131.208 145.944 128.645 145.366 126.248C144.787 123.851 143.878 121.784 142.638 120.048C141.398 118.312 139.786 116.948 137.802 115.956C135.818 114.881 133.42 114.344 130.61 114.344C127.799 114.344 125.402 114.881 123.418 115.956C121.434 116.948 119.822 118.312 118.582 120.048C117.342 121.784 116.432 123.851 115.854 126.248C115.275 128.645 114.986 131.208 114.986 133.936V155.264C114.986 158.157 115.234 160.803 115.73 163.2C116.226 165.597 117.094 167.664 118.334 169.4C119.574 171.136 121.186 172.5 123.17 173.492C125.154 174.401 127.634 174.856 130.61 174.856ZM252.664 188H236.296V161.96C236.296 159.976 235.758 158.364 234.684 157.124C233.692 155.884 231.997 155.264 229.6 155.264H210.752V188H194.384V101.2H227.616C232.08 101.2 236.006 101.82 239.396 103.06C242.785 104.3 245.596 106.036 247.828 108.268C250.142 110.417 251.878 112.939 253.036 115.832C254.276 118.725 254.896 121.825 254.896 125.132V128.108C254.896 131.663 253.945 135.011 252.044 138.152C250.142 141.211 247.208 143.567 243.24 145.22V147.452C246.133 147.783 248.406 148.899 250.06 150.8C251.796 152.701 252.664 155.099 252.664 157.992V188ZM210.752 139.64H226.376C230.344 139.64 233.361 138.731 235.428 136.912C237.494 135.011 238.528 132.365 238.528 128.976V127.488C238.528 124.595 237.494 122.115 235.428 120.048C233.361 117.899 230.344 116.824 226.376 116.824H210.752V139.64ZM288.165 101.2H342.973V116.824H304.533V136.664H341.485V152.288H304.533V172.376H344.461V188H288.165V101.2Z" fill="white"/>
<path d="M68.5 2H5V89L37 58.5L68.5 89V2Z" fill="#FF0035"/>
<line x1="5" y1="211.5" x2="344.5" y2="211.5" stroke="#FF0035" stroke-width="13"/>
</svg> -->

<svg width="611" height="115" viewBox="0 0 611 115" fill="none" xmlns="http://www.w3.org/2000/svg">
<path d="M28.604 101.544C33.1546 101.544 36.6837 98.0867 38.634 94.162L50.5213 101.638C47.178 108.179 40.3056 115 28.6969 115C9.65849 115 0 99.5818 0 80.6127C0 61.6436 10.6801 46.2254 28.6969 46.2254C40.3056 46.2254 47.178 53.0468 50.5213 59.5879L38.634 67.0634C36.6837 63.1387 33.1546 59.6813 28.604 59.6813C20.1528 59.6813 14.8592 69.0257 14.8592 80.6127C14.8592 92.1997 20.1528 101.544 28.604 101.544Z" fill="#FF0035"/>
<path d="M93.2786 113.505L90.121 101.544H73.4044L70.2468 113.505H54.2731L75.076 47.7205H88.4493L109.252 113.505H93.2786ZM76.8406 88.0882H86.6848L81.7627 69.3995L76.8406 88.0882Z" fill="#FF0035"/>
<path d="M136.593 47.7205C154.238 47.7205 162.039 56.878 162.039 68.6519C162.039 80.4258 153.495 90.3309 138.079 90.3309H130.835V113.505H115.976V47.7205H136.593ZM136.5 76.875C142.908 76.875 147.18 74.2585 147.18 69.0257C147.18 63.1387 142.908 61.1764 136.5 61.1764H130.835V76.875H136.5Z" fill="#FF0035"/>
<path d="M172.478 47.7205H217.056V61.1764H202.196V113.505H187.337V61.1764H172.478V47.7205Z" fill="#FF0035"/>
<path d="M259.441 47.7205H274.301V88.462C274.301 105.469 264.921 115 251.269 115C237.245 115 228.237 105.469 228.237 88.462V47.7205H243.096V89.9571C243.096 98.2736 246.44 101.544 251.269 101.544C255.727 101.544 259.441 98.1801 259.441 89.9571V47.7205Z" fill="#FF0035"/>
<path d="M331.546 68.6519C331.546 77.3422 326.809 85.098 318.172 88.462L331.546 113.505H315.2L303.87 90.3309H300.341V113.505H285.482V47.7205H306.099C323.744 47.7205 331.546 56.878 331.546 68.6519ZM300.341 61.1764V76.875H306.006C312.414 76.875 316.686 74.2585 316.686 69.0257C316.686 63.1387 312.414 61.1764 306.006 61.1764H300.341Z" fill="#FF0035"/>
<path d="M385.819 61.1764H359.072V73.8848H379.875V87.3407H359.072V100.049H385.819V113.505H344.213V47.7205H385.819V61.1764Z" fill="#FF0035"/>
<path d="M531.466 45.4954C546.511 45.4954 557.47 60.1661 557.47 79.8827C557.47 99.5993 546.511 114.27 531.466 114.27C516.421 114.27 505.463 99.5993 505.463 79.8827C505.463 60.1661 516.421 45.4954 531.466 45.4954ZM531.466 58.9513C524.965 58.9513 520.322 67.5481 520.322 79.8827C520.322 82.4057 520.507 84.8352 520.879 87.0778L539.639 65.1186C537.689 61.1939 534.809 58.9513 531.466 58.9513ZM531.466 100.814C537.967 100.814 542.611 92.2172 542.611 79.8827C542.611 77.2663 542.425 74.8367 542.053 72.5941L523.294 94.6468C525.244 98.5714 528.123 100.814 531.466 100.814Z" fill="#FF0035"/>
<path d="M597.627 99.319H611V112.775H569.394V99.319H582.767V63.0628L572.366 68.4826L566.422 57.4562L584.253 46.9905H597.627V99.319Z" fill="#FF0035"/>
<path d="M408.828 47.738H425.196V52.6789H419.74V71.8932H414.284V52.6789H408.828V47.738Z" fill="#D9D9D9"/>
<path d="M440.759 47.738H446.216V71.8932H440.759V62.2861H434.758V71.8932H429.302V47.738H434.758V57.3452H440.759V47.738Z" fill="#D9D9D9"/>
<path d="M466.417 52.6789H456.596V57.3452H464.234V62.2861H456.596V66.9524H466.417V71.8932H451.14V47.738H466.417V52.6789Z" fill="#D9D9D9"/>
<path d="M409.646 112.775V88.6197H424.923V93.5605H415.102V98.2269H422.741V103.168H415.102V112.775H409.646Z" fill="#D9D9D9"/>
<path d="M430.666 88.6197H436.122V107.834H445.397V112.775H430.666V88.6197Z" fill="#D9D9D9"/>
<path d="M462.734 112.775L461.574 108.383H455.436L454.277 112.775H448.412L456.05 88.6197H460.961L468.599 112.775H462.734ZM456.698 103.442H460.313L458.505 96.5799L456.698 103.442Z" fill="#D9D9D9"/>
<path d="M478.707 99.5993H487.982V112.775H483.89L483.549 110.304C482.867 111.746 481.06 113.324 478.638 113.324C472.773 113.324 469.431 107.662 469.431 100.697C469.431 93.7321 473.251 88.0707 479.661 88.0707C483.549 88.0707 486.175 90.5754 487.436 92.9772L483.072 95.7221C482.39 94.281 481.196 93.0115 479.627 93.0115C476.695 93.0115 474.887 96.4427 474.887 100.697C474.887 104.952 476.251 108.383 479.355 108.383C481.332 108.383 482.424 106.153 482.56 104.54H478.707V99.5993Z" fill="#D9D9D9"/>
<path d="M1.1801 17.0535V14.4838L10.1769 10.746L1.1801 7.00828V4.43858L12.7889 9.81159V11.6805L1.1801 17.0535Z" fill="white"/>
<path d="M20.2881 17.0535V14.4838L29.2849 10.746L20.2881 7.00828V4.43858L31.8968 9.81159V11.6805L20.2881 17.0535Z" fill="white"/>
<path d="M57.8075 0.233608H70.8093V2.80331H65.7015V20.7912H62.9154V2.80331H57.8075V0.233608Z" fill="white"/>
<path d="M87.1312 0.233608H89.9173V20.7912H87.1312V11.7973H79.7016V20.7912H76.9155V0.233608H79.7016V9.22757H87.1312V0.233608Z" fill="white"/>
<path d="M108.561 2.80331H99.7383V9.22757H106.704V11.7973H99.7383V18.2215H108.561V20.7912H96.9522V0.233608H108.561V2.80331Z" fill="white"/>
<path d="M144.31 9.75319C146.458 10.3956 147.706 12.5857 147.706 14.8634C147.706 18.3967 145.007 20.7912 140.914 20.7912H134.704V0.233608H139.725C144.136 0.233608 146.777 2.07328 146.777 5.60662C146.777 7.5339 145.645 8.99396 144.31 9.75319ZM137.49 2.80331V8.76035H140.102C142.54 8.76035 143.991 7.4755 143.991 5.66502C143.991 3.82535 142.54 2.80331 140.102 2.80331H137.49ZM140.508 18.2215C143.12 18.2215 144.861 17.1995 144.861 14.8926C144.861 12.5565 143.12 11.33 140.508 11.33H137.49V18.2215H140.508Z" fill="white"/>
<path d="M165.885 2.80331H157.062V9.22757H164.027V11.7973H157.062V18.2215H165.885V20.7912H154.276V0.233608H165.885V2.80331Z" fill="white"/>
<path d="M186.154 10.5124V20.7912H183.832L183.658 18.2507C182.816 19.886 181.075 21.0248 178.898 21.0248C173.848 21.0248 170.83 16.3234 170.83 10.5124C170.83 4.70139 173.848 0 179.13 0C182.091 0 184.296 1.72287 185.689 4.40937L183.6 6.01544C182.613 3.91296 181.191 2.5697 179.13 2.5697C175.822 2.5697 173.616 6.10304 173.616 10.5124C173.616 14.9218 175.764 18.4551 178.898 18.4551C181.858 18.4551 183.106 15.7686 183.339 13.0821H177.795V10.5124H186.154Z" fill="white"/>
<path d="M204.333 2.80331H199.457V18.2215H204.333V20.7912H191.796V18.2215H196.671V2.80331H191.796V0.233608H204.333V2.80331Z" fill="white"/>
<path d="M223.673 20.7912H221.351L213.457 6.36585V20.7912H210.671V0.233608H212.993L220.887 14.659V0.233608H223.673V20.7912Z" fill="white"/>
<path d="M242.781 20.7912H240.459L232.565 6.36585V20.7912H229.779V0.233608H232.101L239.995 14.659V0.233608H242.781V20.7912Z" fill="white"/>
<path d="M261.657 2.80331H256.781V18.2215H261.657V20.7912H249.119V18.2215H253.995V2.80331H249.119V0.233608H261.657V2.80331Z" fill="white"/>
<path d="M280.997 20.7912H278.675L270.781 6.36585V20.7912H267.995V0.233608H270.317L278.211 14.659V0.233608H280.997V20.7912Z" fill="white"/>
<path d="M300.802 10.5124V20.7912H298.48L298.306 18.2507C297.464 19.886 295.723 21.0248 293.546 21.0248C288.496 21.0248 285.478 16.3234 285.478 10.5124C285.478 4.70139 288.496 0 293.778 0C296.738 0 298.944 1.72287 300.337 4.40937L298.248 6.01544C297.261 3.91296 295.839 2.5697 293.778 2.5697C290.47 2.5697 288.264 6.10304 288.264 10.5124C288.264 14.9218 290.412 18.4551 293.546 18.4551C296.506 18.4551 297.754 15.7686 297.986 13.0821H292.443V10.5124H300.802Z" fill="white"/>
</svg>
